%TF.GenerationSoftware,KiCad,Pcbnew,9.0.4*%
%TF.CreationDate,2025-10-07T01:27:38+05:30*%
%TF.ProjectId,Project5,50726f6a-6563-4743-952e-6b696361645f,rev?*%
%TF.SameCoordinates,Original*%
%TF.FileFunction,Legend,Top*%
%TF.FilePolarity,Positive*%
%FSLAX46Y46*%
G04 Gerber Fmt 4.6, Leading zero omitted, Abs format (unit mm)*
G04 Created by KiCad (PCBNEW 9.0.4) date 2025-10-07 01:27:38*
%MOMM*%
%LPD*%
G01*
G04 APERTURE LIST*
%ADD10C,0.150000*%
%ADD11C,0.120000*%
G04 APERTURE END LIST*
D10*
X150333333Y-90454819D02*
X150000000Y-89978628D01*
X149761905Y-90454819D02*
X149761905Y-89454819D01*
X149761905Y-89454819D02*
X150142857Y-89454819D01*
X150142857Y-89454819D02*
X150238095Y-89502438D01*
X150238095Y-89502438D02*
X150285714Y-89550057D01*
X150285714Y-89550057D02*
X150333333Y-89645295D01*
X150333333Y-89645295D02*
X150333333Y-89788152D01*
X150333333Y-89788152D02*
X150285714Y-89883390D01*
X150285714Y-89883390D02*
X150238095Y-89931009D01*
X150238095Y-89931009D02*
X150142857Y-89978628D01*
X150142857Y-89978628D02*
X149761905Y-89978628D01*
X150714286Y-89550057D02*
X150761905Y-89502438D01*
X150761905Y-89502438D02*
X150857143Y-89454819D01*
X150857143Y-89454819D02*
X151095238Y-89454819D01*
X151095238Y-89454819D02*
X151190476Y-89502438D01*
X151190476Y-89502438D02*
X151238095Y-89550057D01*
X151238095Y-89550057D02*
X151285714Y-89645295D01*
X151285714Y-89645295D02*
X151285714Y-89740533D01*
X151285714Y-89740533D02*
X151238095Y-89883390D01*
X151238095Y-89883390D02*
X150666667Y-90454819D01*
X150666667Y-90454819D02*
X151285714Y-90454819D01*
X131333333Y-89454819D02*
X131000000Y-88978628D01*
X130761905Y-89454819D02*
X130761905Y-88454819D01*
X130761905Y-88454819D02*
X131142857Y-88454819D01*
X131142857Y-88454819D02*
X131238095Y-88502438D01*
X131238095Y-88502438D02*
X131285714Y-88550057D01*
X131285714Y-88550057D02*
X131333333Y-88645295D01*
X131333333Y-88645295D02*
X131333333Y-88788152D01*
X131333333Y-88788152D02*
X131285714Y-88883390D01*
X131285714Y-88883390D02*
X131238095Y-88931009D01*
X131238095Y-88931009D02*
X131142857Y-88978628D01*
X131142857Y-88978628D02*
X130761905Y-88978628D01*
X131666667Y-88454819D02*
X132285714Y-88454819D01*
X132285714Y-88454819D02*
X131952381Y-88835771D01*
X131952381Y-88835771D02*
X132095238Y-88835771D01*
X132095238Y-88835771D02*
X132190476Y-88883390D01*
X132190476Y-88883390D02*
X132238095Y-88931009D01*
X132238095Y-88931009D02*
X132285714Y-89026247D01*
X132285714Y-89026247D02*
X132285714Y-89264342D01*
X132285714Y-89264342D02*
X132238095Y-89359580D01*
X132238095Y-89359580D02*
X132190476Y-89407200D01*
X132190476Y-89407200D02*
X132095238Y-89454819D01*
X132095238Y-89454819D02*
X131809524Y-89454819D01*
X131809524Y-89454819D02*
X131714286Y-89407200D01*
X131714286Y-89407200D02*
X131666667Y-89359580D01*
X150333333Y-83954819D02*
X150000000Y-83478628D01*
X149761905Y-83954819D02*
X149761905Y-82954819D01*
X149761905Y-82954819D02*
X150142857Y-82954819D01*
X150142857Y-82954819D02*
X150238095Y-83002438D01*
X150238095Y-83002438D02*
X150285714Y-83050057D01*
X150285714Y-83050057D02*
X150333333Y-83145295D01*
X150333333Y-83145295D02*
X150333333Y-83288152D01*
X150333333Y-83288152D02*
X150285714Y-83383390D01*
X150285714Y-83383390D02*
X150238095Y-83431009D01*
X150238095Y-83431009D02*
X150142857Y-83478628D01*
X150142857Y-83478628D02*
X149761905Y-83478628D01*
X151285714Y-83954819D02*
X150714286Y-83954819D01*
X151000000Y-83954819D02*
X151000000Y-82954819D01*
X151000000Y-82954819D02*
X150904762Y-83097676D01*
X150904762Y-83097676D02*
X150809524Y-83192914D01*
X150809524Y-83192914D02*
X150714286Y-83240533D01*
X137333333Y-97359580D02*
X137285714Y-97407200D01*
X137285714Y-97407200D02*
X137142857Y-97454819D01*
X137142857Y-97454819D02*
X137047619Y-97454819D01*
X137047619Y-97454819D02*
X136904762Y-97407200D01*
X136904762Y-97407200D02*
X136809524Y-97311961D01*
X136809524Y-97311961D02*
X136761905Y-97216723D01*
X136761905Y-97216723D02*
X136714286Y-97026247D01*
X136714286Y-97026247D02*
X136714286Y-96883390D01*
X136714286Y-96883390D02*
X136761905Y-96692914D01*
X136761905Y-96692914D02*
X136809524Y-96597676D01*
X136809524Y-96597676D02*
X136904762Y-96502438D01*
X136904762Y-96502438D02*
X137047619Y-96454819D01*
X137047619Y-96454819D02*
X137142857Y-96454819D01*
X137142857Y-96454819D02*
X137285714Y-96502438D01*
X137285714Y-96502438D02*
X137333333Y-96550057D01*
X138285714Y-97454819D02*
X137714286Y-97454819D01*
X138000000Y-97454819D02*
X138000000Y-96454819D01*
X138000000Y-96454819D02*
X137904762Y-96597676D01*
X137904762Y-96597676D02*
X137809524Y-96692914D01*
X137809524Y-96692914D02*
X137714286Y-96740533D01*
X141238095Y-94354819D02*
X141238095Y-95164342D01*
X141238095Y-95164342D02*
X141285714Y-95259580D01*
X141285714Y-95259580D02*
X141333333Y-95307200D01*
X141333333Y-95307200D02*
X141428571Y-95354819D01*
X141428571Y-95354819D02*
X141619047Y-95354819D01*
X141619047Y-95354819D02*
X141714285Y-95307200D01*
X141714285Y-95307200D02*
X141761904Y-95259580D01*
X141761904Y-95259580D02*
X141809523Y-95164342D01*
X141809523Y-95164342D02*
X141809523Y-94354819D01*
X142809523Y-95354819D02*
X142238095Y-95354819D01*
X142523809Y-95354819D02*
X142523809Y-94354819D01*
X142523809Y-94354819D02*
X142428571Y-94497676D01*
X142428571Y-94497676D02*
X142333333Y-94592914D01*
X142333333Y-94592914D02*
X142238095Y-94640533D01*
X131333333Y-86454819D02*
X131000000Y-85978628D01*
X130761905Y-86454819D02*
X130761905Y-85454819D01*
X130761905Y-85454819D02*
X131142857Y-85454819D01*
X131142857Y-85454819D02*
X131238095Y-85502438D01*
X131238095Y-85502438D02*
X131285714Y-85550057D01*
X131285714Y-85550057D02*
X131333333Y-85645295D01*
X131333333Y-85645295D02*
X131333333Y-85788152D01*
X131333333Y-85788152D02*
X131285714Y-85883390D01*
X131285714Y-85883390D02*
X131238095Y-85931009D01*
X131238095Y-85931009D02*
X131142857Y-85978628D01*
X131142857Y-85978628D02*
X130761905Y-85978628D01*
X132190476Y-85788152D02*
X132190476Y-86454819D01*
X131952381Y-85407200D02*
X131714286Y-86121485D01*
X131714286Y-86121485D02*
X132333333Y-86121485D01*
X138923333Y-79724819D02*
X138447143Y-79724819D01*
X138447143Y-79724819D02*
X138447143Y-78724819D01*
X139780476Y-79724819D02*
X139209048Y-79724819D01*
X139494762Y-79724819D02*
X139494762Y-78724819D01*
X139494762Y-78724819D02*
X139399524Y-78867676D01*
X139399524Y-78867676D02*
X139304286Y-78962914D01*
X139304286Y-78962914D02*
X139209048Y-79010533D01*
X146333333Y-92859580D02*
X146285714Y-92907200D01*
X146285714Y-92907200D02*
X146142857Y-92954819D01*
X146142857Y-92954819D02*
X146047619Y-92954819D01*
X146047619Y-92954819D02*
X145904762Y-92907200D01*
X145904762Y-92907200D02*
X145809524Y-92811961D01*
X145809524Y-92811961D02*
X145761905Y-92716723D01*
X145761905Y-92716723D02*
X145714286Y-92526247D01*
X145714286Y-92526247D02*
X145714286Y-92383390D01*
X145714286Y-92383390D02*
X145761905Y-92192914D01*
X145761905Y-92192914D02*
X145809524Y-92097676D01*
X145809524Y-92097676D02*
X145904762Y-92002438D01*
X145904762Y-92002438D02*
X146047619Y-91954819D01*
X146047619Y-91954819D02*
X146142857Y-91954819D01*
X146142857Y-91954819D02*
X146285714Y-92002438D01*
X146285714Y-92002438D02*
X146333333Y-92050057D01*
X146714286Y-92050057D02*
X146761905Y-92002438D01*
X146761905Y-92002438D02*
X146857143Y-91954819D01*
X146857143Y-91954819D02*
X147095238Y-91954819D01*
X147095238Y-91954819D02*
X147190476Y-92002438D01*
X147190476Y-92002438D02*
X147238095Y-92050057D01*
X147238095Y-92050057D02*
X147285714Y-92145295D01*
X147285714Y-92145295D02*
X147285714Y-92240533D01*
X147285714Y-92240533D02*
X147238095Y-92383390D01*
X147238095Y-92383390D02*
X146666667Y-92954819D01*
X146666667Y-92954819D02*
X147285714Y-92954819D01*
X145761905Y-81454819D02*
X145761905Y-80454819D01*
X145761905Y-80454819D02*
X146000000Y-80454819D01*
X146000000Y-80454819D02*
X146142857Y-80502438D01*
X146142857Y-80502438D02*
X146238095Y-80597676D01*
X146238095Y-80597676D02*
X146285714Y-80692914D01*
X146285714Y-80692914D02*
X146333333Y-80883390D01*
X146333333Y-80883390D02*
X146333333Y-81026247D01*
X146333333Y-81026247D02*
X146285714Y-81216723D01*
X146285714Y-81216723D02*
X146238095Y-81311961D01*
X146238095Y-81311961D02*
X146142857Y-81407200D01*
X146142857Y-81407200D02*
X146000000Y-81454819D01*
X146000000Y-81454819D02*
X145761905Y-81454819D01*
X147285714Y-81454819D02*
X146714286Y-81454819D01*
X147000000Y-81454819D02*
X147000000Y-80454819D01*
X147000000Y-80454819D02*
X146904762Y-80597676D01*
X146904762Y-80597676D02*
X146809524Y-80692914D01*
X146809524Y-80692914D02*
X146714286Y-80740533D01*
X123761905Y-88454819D02*
X123761905Y-87454819D01*
X123761905Y-87454819D02*
X124142857Y-87454819D01*
X124142857Y-87454819D02*
X124238095Y-87502438D01*
X124238095Y-87502438D02*
X124285714Y-87550057D01*
X124285714Y-87550057D02*
X124333333Y-87645295D01*
X124333333Y-87645295D02*
X124333333Y-87788152D01*
X124333333Y-87788152D02*
X124285714Y-87883390D01*
X124285714Y-87883390D02*
X124238095Y-87931009D01*
X124238095Y-87931009D02*
X124142857Y-87978628D01*
X124142857Y-87978628D02*
X123761905Y-87978628D01*
X125285714Y-88454819D02*
X124714286Y-88454819D01*
X125000000Y-88454819D02*
X125000000Y-87454819D01*
X125000000Y-87454819D02*
X124904762Y-87597676D01*
X124904762Y-87597676D02*
X124809524Y-87692914D01*
X124809524Y-87692914D02*
X124714286Y-87740533D01*
D11*
%TO.C,J2*%
X152620000Y-89210000D02*
X154000000Y-89210000D01*
X152620000Y-90590000D02*
X152620000Y-89210000D01*
X152620000Y-91860000D02*
X152620000Y-91970000D01*
X152620000Y-91860000D02*
X155380000Y-91860000D01*
X152620000Y-91970000D02*
X155380000Y-91970000D01*
X155380000Y-91860000D02*
X155380000Y-91970000D01*
%TO.C,J1*%
X155380000Y-87270000D02*
X155380000Y-87380000D01*
X152620000Y-87380000D02*
X155380000Y-87380000D01*
X152620000Y-87270000D02*
X155380000Y-87270000D01*
X152620000Y-87270000D02*
X152620000Y-87380000D01*
X152620000Y-86000000D02*
X152620000Y-84620000D01*
X152620000Y-84620000D02*
X154000000Y-84620000D01*
%TO.C,R2*%
X148620000Y-88667621D02*
X148620000Y-88332379D01*
X149380000Y-88667621D02*
X149380000Y-88332379D01*
%TO.C,R3*%
X130977500Y-91262742D02*
X130977500Y-91737258D01*
X132022500Y-91262742D02*
X132022500Y-91737258D01*
%TO.C,R1*%
X148620000Y-85167621D02*
X148620000Y-84832379D01*
X149380000Y-85167621D02*
X149380000Y-84832379D01*
%TO.C,C1*%
X136590000Y-93288748D02*
X136590000Y-94711252D01*
X138410000Y-93288748D02*
X138410000Y-94711252D01*
%TO.C,U1*%
X142000000Y-90940000D02*
X141200000Y-90940000D01*
X142000000Y-90940000D02*
X142800000Y-90940000D01*
X142000000Y-94060000D02*
X141200000Y-94060000D01*
X142000000Y-94060000D02*
X142800000Y-94060000D01*
X143540000Y-94340000D02*
X143060000Y-94340000D01*
X143300000Y-94010000D01*
X143540000Y-94340000D01*
G36*
X143540000Y-94340000D02*
G01*
X143060000Y-94340000D01*
X143300000Y-94010000D01*
X143540000Y-94340000D01*
G37*
%TO.C,R4*%
X130977500Y-83262742D02*
X130977500Y-83737258D01*
X132022500Y-83262742D02*
X132022500Y-83737258D01*
%TO.C,L1*%
X137750000Y-88700000D02*
X140250000Y-88700000D01*
X140250000Y-80300000D02*
X137750000Y-80300000D01*
%TO.C,C2*%
X145590000Y-88788748D02*
X145590000Y-90211252D01*
X147410000Y-88788748D02*
X147410000Y-90211252D01*
%TO.C,D1*%
X145500000Y-81640000D02*
X145500000Y-85650000D01*
X147500000Y-81640000D02*
X145500000Y-81640000D01*
X147500000Y-81640000D02*
X147500000Y-85650000D01*
%TO.C,P1*%
X123600000Y-92670000D02*
X125300000Y-92670000D01*
X123600000Y-83330000D02*
X125300000Y-83330000D01*
%TD*%
M02*
