%TF.GenerationSoftware,KiCad,Pcbnew,9.0.4*%
%TF.CreationDate,2025-10-07T06:11:54+05:30*%
%TF.ProjectId,Project6,50726f6a-6563-4743-962e-6b696361645f,rev?*%
%TF.SameCoordinates,Original*%
%TF.FileFunction,Legend,Top*%
%TF.FilePolarity,Positive*%
%FSLAX46Y46*%
G04 Gerber Fmt 4.6, Leading zero omitted, Abs format (unit mm)*
G04 Created by KiCad (PCBNEW 9.0.4) date 2025-10-07 06:11:54*
%MOMM*%
%LPD*%
G01*
G04 APERTURE LIST*
%ADD10C,0.150000*%
%ADD11C,0.120000*%
G04 APERTURE END LIST*
D10*
X116738095Y-80854819D02*
X116738095Y-81664342D01*
X116738095Y-81664342D02*
X116785714Y-81759580D01*
X116785714Y-81759580D02*
X116833333Y-81807200D01*
X116833333Y-81807200D02*
X116928571Y-81854819D01*
X116928571Y-81854819D02*
X117119047Y-81854819D01*
X117119047Y-81854819D02*
X117214285Y-81807200D01*
X117214285Y-81807200D02*
X117261904Y-81759580D01*
X117261904Y-81759580D02*
X117309523Y-81664342D01*
X117309523Y-81664342D02*
X117309523Y-80854819D01*
X118309523Y-81854819D02*
X117738095Y-81854819D01*
X118023809Y-81854819D02*
X118023809Y-80854819D01*
X118023809Y-80854819D02*
X117928571Y-80997676D01*
X117928571Y-80997676D02*
X117833333Y-81092914D01*
X117833333Y-81092914D02*
X117738095Y-81140533D01*
X126833333Y-87367319D02*
X126500000Y-86891128D01*
X126261905Y-87367319D02*
X126261905Y-86367319D01*
X126261905Y-86367319D02*
X126642857Y-86367319D01*
X126642857Y-86367319D02*
X126738095Y-86414938D01*
X126738095Y-86414938D02*
X126785714Y-86462557D01*
X126785714Y-86462557D02*
X126833333Y-86557795D01*
X126833333Y-86557795D02*
X126833333Y-86700652D01*
X126833333Y-86700652D02*
X126785714Y-86795890D01*
X126785714Y-86795890D02*
X126738095Y-86843509D01*
X126738095Y-86843509D02*
X126642857Y-86891128D01*
X126642857Y-86891128D02*
X126261905Y-86891128D01*
X127214286Y-86462557D02*
X127261905Y-86414938D01*
X127261905Y-86414938D02*
X127357143Y-86367319D01*
X127357143Y-86367319D02*
X127595238Y-86367319D01*
X127595238Y-86367319D02*
X127690476Y-86414938D01*
X127690476Y-86414938D02*
X127738095Y-86462557D01*
X127738095Y-86462557D02*
X127785714Y-86557795D01*
X127785714Y-86557795D02*
X127785714Y-86653033D01*
X127785714Y-86653033D02*
X127738095Y-86795890D01*
X127738095Y-86795890D02*
X127166667Y-87367319D01*
X127166667Y-87367319D02*
X127785714Y-87367319D01*
X124333333Y-80867319D02*
X124000000Y-80391128D01*
X123761905Y-80867319D02*
X123761905Y-79867319D01*
X123761905Y-79867319D02*
X124142857Y-79867319D01*
X124142857Y-79867319D02*
X124238095Y-79914938D01*
X124238095Y-79914938D02*
X124285714Y-79962557D01*
X124285714Y-79962557D02*
X124333333Y-80057795D01*
X124333333Y-80057795D02*
X124333333Y-80200652D01*
X124333333Y-80200652D02*
X124285714Y-80295890D01*
X124285714Y-80295890D02*
X124238095Y-80343509D01*
X124238095Y-80343509D02*
X124142857Y-80391128D01*
X124142857Y-80391128D02*
X123761905Y-80391128D01*
X125285714Y-80867319D02*
X124714286Y-80867319D01*
X125000000Y-80867319D02*
X125000000Y-79867319D01*
X125000000Y-79867319D02*
X124904762Y-80010176D01*
X124904762Y-80010176D02*
X124809524Y-80105414D01*
X124809524Y-80105414D02*
X124714286Y-80153033D01*
X136954819Y-85023809D02*
X137954819Y-84690476D01*
X137954819Y-84690476D02*
X136954819Y-84357143D01*
X137954819Y-83880952D02*
X137907200Y-83976190D01*
X137907200Y-83976190D02*
X137859580Y-84023809D01*
X137859580Y-84023809D02*
X137764342Y-84071428D01*
X137764342Y-84071428D02*
X137478628Y-84071428D01*
X137478628Y-84071428D02*
X137383390Y-84023809D01*
X137383390Y-84023809D02*
X137335771Y-83976190D01*
X137335771Y-83976190D02*
X137288152Y-83880952D01*
X137288152Y-83880952D02*
X137288152Y-83738095D01*
X137288152Y-83738095D02*
X137335771Y-83642857D01*
X137335771Y-83642857D02*
X137383390Y-83595238D01*
X137383390Y-83595238D02*
X137478628Y-83547619D01*
X137478628Y-83547619D02*
X137764342Y-83547619D01*
X137764342Y-83547619D02*
X137859580Y-83595238D01*
X137859580Y-83595238D02*
X137907200Y-83642857D01*
X137907200Y-83642857D02*
X137954819Y-83738095D01*
X137954819Y-83738095D02*
X137954819Y-83880952D01*
X137288152Y-82690476D02*
X137954819Y-82690476D01*
X137288152Y-83119047D02*
X137811961Y-83119047D01*
X137811961Y-83119047D02*
X137907200Y-83071428D01*
X137907200Y-83071428D02*
X137954819Y-82976190D01*
X137954819Y-82976190D02*
X137954819Y-82833333D01*
X137954819Y-82833333D02*
X137907200Y-82738095D01*
X137907200Y-82738095D02*
X137859580Y-82690476D01*
X137288152Y-82357142D02*
X137288152Y-81976190D01*
X136954819Y-82214285D02*
X137811961Y-82214285D01*
X137811961Y-82214285D02*
X137907200Y-82166666D01*
X137907200Y-82166666D02*
X137954819Y-82071428D01*
X137954819Y-82071428D02*
X137954819Y-81976190D01*
X100954819Y-84523808D02*
X101954819Y-84190475D01*
X101954819Y-84190475D02*
X100954819Y-83857142D01*
X101954819Y-83523808D02*
X101288152Y-83523808D01*
X100954819Y-83523808D02*
X101002438Y-83571427D01*
X101002438Y-83571427D02*
X101050057Y-83523808D01*
X101050057Y-83523808D02*
X101002438Y-83476189D01*
X101002438Y-83476189D02*
X100954819Y-83523808D01*
X100954819Y-83523808D02*
X101050057Y-83523808D01*
X101288152Y-83047618D02*
X101954819Y-83047618D01*
X101383390Y-83047618D02*
X101335771Y-82999999D01*
X101335771Y-82999999D02*
X101288152Y-82904761D01*
X101288152Y-82904761D02*
X101288152Y-82761904D01*
X101288152Y-82761904D02*
X101335771Y-82666666D01*
X101335771Y-82666666D02*
X101431009Y-82619047D01*
X101431009Y-82619047D02*
X101954819Y-82619047D01*
X120142856Y-87859580D02*
X120095237Y-87907200D01*
X120095237Y-87907200D02*
X119952380Y-87954819D01*
X119952380Y-87954819D02*
X119857142Y-87954819D01*
X119857142Y-87954819D02*
X119714285Y-87907200D01*
X119714285Y-87907200D02*
X119619047Y-87811961D01*
X119619047Y-87811961D02*
X119571428Y-87716723D01*
X119571428Y-87716723D02*
X119523809Y-87526247D01*
X119523809Y-87526247D02*
X119523809Y-87383390D01*
X119523809Y-87383390D02*
X119571428Y-87192914D01*
X119571428Y-87192914D02*
X119619047Y-87097676D01*
X119619047Y-87097676D02*
X119714285Y-87002438D01*
X119714285Y-87002438D02*
X119857142Y-86954819D01*
X119857142Y-86954819D02*
X119952380Y-86954819D01*
X119952380Y-86954819D02*
X120095237Y-87002438D01*
X120095237Y-87002438D02*
X120142856Y-87050057D01*
X120714285Y-87954819D02*
X120619047Y-87907200D01*
X120619047Y-87907200D02*
X120571428Y-87859580D01*
X120571428Y-87859580D02*
X120523809Y-87764342D01*
X120523809Y-87764342D02*
X120523809Y-87478628D01*
X120523809Y-87478628D02*
X120571428Y-87383390D01*
X120571428Y-87383390D02*
X120619047Y-87335771D01*
X120619047Y-87335771D02*
X120714285Y-87288152D01*
X120714285Y-87288152D02*
X120857142Y-87288152D01*
X120857142Y-87288152D02*
X120952380Y-87335771D01*
X120952380Y-87335771D02*
X120999999Y-87383390D01*
X120999999Y-87383390D02*
X121047618Y-87478628D01*
X121047618Y-87478628D02*
X121047618Y-87764342D01*
X121047618Y-87764342D02*
X120999999Y-87859580D01*
X120999999Y-87859580D02*
X120952380Y-87907200D01*
X120952380Y-87907200D02*
X120857142Y-87954819D01*
X120857142Y-87954819D02*
X120714285Y-87954819D01*
X121904761Y-87288152D02*
X121904761Y-87954819D01*
X121476190Y-87288152D02*
X121476190Y-87811961D01*
X121476190Y-87811961D02*
X121523809Y-87907200D01*
X121523809Y-87907200D02*
X121619047Y-87954819D01*
X121619047Y-87954819D02*
X121761904Y-87954819D01*
X121761904Y-87954819D02*
X121857142Y-87907200D01*
X121857142Y-87907200D02*
X121904761Y-87859580D01*
X122238095Y-87288152D02*
X122619047Y-87288152D01*
X122380952Y-86954819D02*
X122380952Y-87811961D01*
X122380952Y-87811961D02*
X122428571Y-87907200D01*
X122428571Y-87907200D02*
X122523809Y-87954819D01*
X122523809Y-87954819D02*
X122619047Y-87954819D01*
X123476190Y-87954819D02*
X122904762Y-87954819D01*
X123190476Y-87954819D02*
X123190476Y-86954819D01*
X123190476Y-86954819D02*
X123095238Y-87097676D01*
X123095238Y-87097676D02*
X123000000Y-87192914D01*
X123000000Y-87192914D02*
X122904762Y-87240533D01*
X109857142Y-87859580D02*
X109809523Y-87907200D01*
X109809523Y-87907200D02*
X109666666Y-87954819D01*
X109666666Y-87954819D02*
X109571428Y-87954819D01*
X109571428Y-87954819D02*
X109428571Y-87907200D01*
X109428571Y-87907200D02*
X109333333Y-87811961D01*
X109333333Y-87811961D02*
X109285714Y-87716723D01*
X109285714Y-87716723D02*
X109238095Y-87526247D01*
X109238095Y-87526247D02*
X109238095Y-87383390D01*
X109238095Y-87383390D02*
X109285714Y-87192914D01*
X109285714Y-87192914D02*
X109333333Y-87097676D01*
X109333333Y-87097676D02*
X109428571Y-87002438D01*
X109428571Y-87002438D02*
X109571428Y-86954819D01*
X109571428Y-86954819D02*
X109666666Y-86954819D01*
X109666666Y-86954819D02*
X109809523Y-87002438D01*
X109809523Y-87002438D02*
X109857142Y-87050057D01*
X110285714Y-87288152D02*
X110285714Y-87954819D01*
X110285714Y-87383390D02*
X110333333Y-87335771D01*
X110333333Y-87335771D02*
X110428571Y-87288152D01*
X110428571Y-87288152D02*
X110571428Y-87288152D01*
X110571428Y-87288152D02*
X110666666Y-87335771D01*
X110666666Y-87335771D02*
X110714285Y-87431009D01*
X110714285Y-87431009D02*
X110714285Y-87954819D01*
X111333333Y-87954819D02*
X111238095Y-87907200D01*
X111238095Y-87907200D02*
X111190476Y-87859580D01*
X111190476Y-87859580D02*
X111142857Y-87764342D01*
X111142857Y-87764342D02*
X111142857Y-87478628D01*
X111142857Y-87478628D02*
X111190476Y-87383390D01*
X111190476Y-87383390D02*
X111238095Y-87335771D01*
X111238095Y-87335771D02*
X111333333Y-87288152D01*
X111333333Y-87288152D02*
X111476190Y-87288152D01*
X111476190Y-87288152D02*
X111571428Y-87335771D01*
X111571428Y-87335771D02*
X111619047Y-87383390D01*
X111619047Y-87383390D02*
X111666666Y-87478628D01*
X111666666Y-87478628D02*
X111666666Y-87764342D01*
X111666666Y-87764342D02*
X111619047Y-87859580D01*
X111619047Y-87859580D02*
X111571428Y-87907200D01*
X111571428Y-87907200D02*
X111476190Y-87954819D01*
X111476190Y-87954819D02*
X111333333Y-87954819D01*
X112095238Y-87954819D02*
X112095238Y-87288152D01*
X112095238Y-86954819D02*
X112047619Y-87002438D01*
X112047619Y-87002438D02*
X112095238Y-87050057D01*
X112095238Y-87050057D02*
X112142857Y-87002438D01*
X112142857Y-87002438D02*
X112095238Y-86954819D01*
X112095238Y-86954819D02*
X112095238Y-87050057D01*
X112523809Y-87907200D02*
X112619047Y-87954819D01*
X112619047Y-87954819D02*
X112809523Y-87954819D01*
X112809523Y-87954819D02*
X112904761Y-87907200D01*
X112904761Y-87907200D02*
X112952380Y-87811961D01*
X112952380Y-87811961D02*
X112952380Y-87764342D01*
X112952380Y-87764342D02*
X112904761Y-87669104D01*
X112904761Y-87669104D02*
X112809523Y-87621485D01*
X112809523Y-87621485D02*
X112666666Y-87621485D01*
X112666666Y-87621485D02*
X112571428Y-87573866D01*
X112571428Y-87573866D02*
X112523809Y-87478628D01*
X112523809Y-87478628D02*
X112523809Y-87431009D01*
X112523809Y-87431009D02*
X112571428Y-87335771D01*
X112571428Y-87335771D02*
X112666666Y-87288152D01*
X112666666Y-87288152D02*
X112809523Y-87288152D01*
X112809523Y-87288152D02*
X112904761Y-87335771D01*
X113761904Y-87907200D02*
X113666666Y-87954819D01*
X113666666Y-87954819D02*
X113476190Y-87954819D01*
X113476190Y-87954819D02*
X113380952Y-87907200D01*
X113380952Y-87907200D02*
X113333333Y-87811961D01*
X113333333Y-87811961D02*
X113333333Y-87431009D01*
X113333333Y-87431009D02*
X113380952Y-87335771D01*
X113380952Y-87335771D02*
X113476190Y-87288152D01*
X113476190Y-87288152D02*
X113666666Y-87288152D01*
X113666666Y-87288152D02*
X113761904Y-87335771D01*
X113761904Y-87335771D02*
X113809523Y-87431009D01*
X113809523Y-87431009D02*
X113809523Y-87526247D01*
X113809523Y-87526247D02*
X113333333Y-87621485D01*
X114761904Y-87954819D02*
X114190476Y-87954819D01*
X114476190Y-87954819D02*
X114476190Y-86954819D01*
X114476190Y-86954819D02*
X114380952Y-87097676D01*
X114380952Y-87097676D02*
X114285714Y-87192914D01*
X114285714Y-87192914D02*
X114190476Y-87240533D01*
X113642857Y-79359580D02*
X113595238Y-79407200D01*
X113595238Y-79407200D02*
X113452381Y-79454819D01*
X113452381Y-79454819D02*
X113357143Y-79454819D01*
X113357143Y-79454819D02*
X113214286Y-79407200D01*
X113214286Y-79407200D02*
X113119048Y-79311961D01*
X113119048Y-79311961D02*
X113071429Y-79216723D01*
X113071429Y-79216723D02*
X113023810Y-79026247D01*
X113023810Y-79026247D02*
X113023810Y-78883390D01*
X113023810Y-78883390D02*
X113071429Y-78692914D01*
X113071429Y-78692914D02*
X113119048Y-78597676D01*
X113119048Y-78597676D02*
X113214286Y-78502438D01*
X113214286Y-78502438D02*
X113357143Y-78454819D01*
X113357143Y-78454819D02*
X113452381Y-78454819D01*
X113452381Y-78454819D02*
X113595238Y-78502438D01*
X113595238Y-78502438D02*
X113642857Y-78550057D01*
X114071429Y-79454819D02*
X114071429Y-78788152D01*
X114071429Y-78454819D02*
X114023810Y-78502438D01*
X114023810Y-78502438D02*
X114071429Y-78550057D01*
X114071429Y-78550057D02*
X114119048Y-78502438D01*
X114119048Y-78502438D02*
X114071429Y-78454819D01*
X114071429Y-78454819D02*
X114071429Y-78550057D01*
X114547619Y-78788152D02*
X114547619Y-79454819D01*
X114547619Y-78883390D02*
X114595238Y-78835771D01*
X114595238Y-78835771D02*
X114690476Y-78788152D01*
X114690476Y-78788152D02*
X114833333Y-78788152D01*
X114833333Y-78788152D02*
X114928571Y-78835771D01*
X114928571Y-78835771D02*
X114976190Y-78931009D01*
X114976190Y-78931009D02*
X114976190Y-79454819D01*
X115976190Y-79454819D02*
X115404762Y-79454819D01*
X115690476Y-79454819D02*
X115690476Y-78454819D01*
X115690476Y-78454819D02*
X115595238Y-78597676D01*
X115595238Y-78597676D02*
X115500000Y-78692914D01*
X115500000Y-78692914D02*
X115404762Y-78740533D01*
X120261904Y-79859580D02*
X120214285Y-79907200D01*
X120214285Y-79907200D02*
X120071428Y-79954819D01*
X120071428Y-79954819D02*
X119976190Y-79954819D01*
X119976190Y-79954819D02*
X119833333Y-79907200D01*
X119833333Y-79907200D02*
X119738095Y-79811961D01*
X119738095Y-79811961D02*
X119690476Y-79716723D01*
X119690476Y-79716723D02*
X119642857Y-79526247D01*
X119642857Y-79526247D02*
X119642857Y-79383390D01*
X119642857Y-79383390D02*
X119690476Y-79192914D01*
X119690476Y-79192914D02*
X119738095Y-79097676D01*
X119738095Y-79097676D02*
X119833333Y-79002438D01*
X119833333Y-79002438D02*
X119976190Y-78954819D01*
X119976190Y-78954819D02*
X120071428Y-78954819D01*
X120071428Y-78954819D02*
X120214285Y-79002438D01*
X120214285Y-79002438D02*
X120261904Y-79050057D01*
X120547619Y-79288152D02*
X120928571Y-79288152D01*
X120690476Y-79954819D02*
X120690476Y-79097676D01*
X120690476Y-79097676D02*
X120738095Y-79002438D01*
X120738095Y-79002438D02*
X120833333Y-78954819D01*
X120833333Y-78954819D02*
X120928571Y-78954819D01*
X121119048Y-79288152D02*
X121500000Y-79288152D01*
X121261905Y-79954819D02*
X121261905Y-79097676D01*
X121261905Y-79097676D02*
X121309524Y-79002438D01*
X121309524Y-79002438D02*
X121404762Y-78954819D01*
X121404762Y-78954819D02*
X121500000Y-78954819D01*
X122357143Y-79954819D02*
X121785715Y-79954819D01*
X122071429Y-79954819D02*
X122071429Y-78954819D01*
X122071429Y-78954819D02*
X121976191Y-79097676D01*
X121976191Y-79097676D02*
X121880953Y-79192914D01*
X121880953Y-79192914D02*
X121785715Y-79240533D01*
X128761904Y-80859580D02*
X128714285Y-80907200D01*
X128714285Y-80907200D02*
X128571428Y-80954819D01*
X128571428Y-80954819D02*
X128476190Y-80954819D01*
X128476190Y-80954819D02*
X128333333Y-80907200D01*
X128333333Y-80907200D02*
X128238095Y-80811961D01*
X128238095Y-80811961D02*
X128190476Y-80716723D01*
X128190476Y-80716723D02*
X128142857Y-80526247D01*
X128142857Y-80526247D02*
X128142857Y-80383390D01*
X128142857Y-80383390D02*
X128190476Y-80192914D01*
X128190476Y-80192914D02*
X128238095Y-80097676D01*
X128238095Y-80097676D02*
X128333333Y-80002438D01*
X128333333Y-80002438D02*
X128476190Y-79954819D01*
X128476190Y-79954819D02*
X128571428Y-79954819D01*
X128571428Y-79954819D02*
X128714285Y-80002438D01*
X128714285Y-80002438D02*
X128761904Y-80050057D01*
X129190476Y-80954819D02*
X129190476Y-79954819D01*
X129190476Y-80335771D02*
X129285714Y-80288152D01*
X129285714Y-80288152D02*
X129476190Y-80288152D01*
X129476190Y-80288152D02*
X129571428Y-80335771D01*
X129571428Y-80335771D02*
X129619047Y-80383390D01*
X129619047Y-80383390D02*
X129666666Y-80478628D01*
X129666666Y-80478628D02*
X129666666Y-80764342D01*
X129666666Y-80764342D02*
X129619047Y-80859580D01*
X129619047Y-80859580D02*
X129571428Y-80907200D01*
X129571428Y-80907200D02*
X129476190Y-80954819D01*
X129476190Y-80954819D02*
X129285714Y-80954819D01*
X129285714Y-80954819D02*
X129190476Y-80907200D01*
X130523809Y-80288152D02*
X130523809Y-80954819D01*
X130095238Y-80288152D02*
X130095238Y-80811961D01*
X130095238Y-80811961D02*
X130142857Y-80907200D01*
X130142857Y-80907200D02*
X130238095Y-80954819D01*
X130238095Y-80954819D02*
X130380952Y-80954819D01*
X130380952Y-80954819D02*
X130476190Y-80907200D01*
X130476190Y-80907200D02*
X130523809Y-80859580D01*
X131142857Y-80954819D02*
X131047619Y-80907200D01*
X131047619Y-80907200D02*
X131000000Y-80811961D01*
X131000000Y-80811961D02*
X131000000Y-79954819D01*
X131523810Y-80954819D02*
X131523810Y-79954819D01*
X131619048Y-80573866D02*
X131904762Y-80954819D01*
X131904762Y-80288152D02*
X131523810Y-80669104D01*
X132285715Y-80050057D02*
X132333334Y-80002438D01*
X132333334Y-80002438D02*
X132428572Y-79954819D01*
X132428572Y-79954819D02*
X132666667Y-79954819D01*
X132666667Y-79954819D02*
X132761905Y-80002438D01*
X132761905Y-80002438D02*
X132809524Y-80050057D01*
X132809524Y-80050057D02*
X132857143Y-80145295D01*
X132857143Y-80145295D02*
X132857143Y-80240533D01*
X132857143Y-80240533D02*
X132809524Y-80383390D01*
X132809524Y-80383390D02*
X132238096Y-80954819D01*
X132238096Y-80954819D02*
X132857143Y-80954819D01*
X107261904Y-79359580D02*
X107214285Y-79407200D01*
X107214285Y-79407200D02*
X107071428Y-79454819D01*
X107071428Y-79454819D02*
X106976190Y-79454819D01*
X106976190Y-79454819D02*
X106833333Y-79407200D01*
X106833333Y-79407200D02*
X106738095Y-79311961D01*
X106738095Y-79311961D02*
X106690476Y-79216723D01*
X106690476Y-79216723D02*
X106642857Y-79026247D01*
X106642857Y-79026247D02*
X106642857Y-78883390D01*
X106642857Y-78883390D02*
X106690476Y-78692914D01*
X106690476Y-78692914D02*
X106738095Y-78597676D01*
X106738095Y-78597676D02*
X106833333Y-78502438D01*
X106833333Y-78502438D02*
X106976190Y-78454819D01*
X106976190Y-78454819D02*
X107071428Y-78454819D01*
X107071428Y-78454819D02*
X107214285Y-78502438D01*
X107214285Y-78502438D02*
X107261904Y-78550057D01*
X107690476Y-79454819D02*
X107690476Y-78454819D01*
X107690476Y-78835771D02*
X107785714Y-78788152D01*
X107785714Y-78788152D02*
X107976190Y-78788152D01*
X107976190Y-78788152D02*
X108071428Y-78835771D01*
X108071428Y-78835771D02*
X108119047Y-78883390D01*
X108119047Y-78883390D02*
X108166666Y-78978628D01*
X108166666Y-78978628D02*
X108166666Y-79264342D01*
X108166666Y-79264342D02*
X108119047Y-79359580D01*
X108119047Y-79359580D02*
X108071428Y-79407200D01*
X108071428Y-79407200D02*
X107976190Y-79454819D01*
X107976190Y-79454819D02*
X107785714Y-79454819D01*
X107785714Y-79454819D02*
X107690476Y-79407200D01*
X109023809Y-78788152D02*
X109023809Y-79454819D01*
X108595238Y-78788152D02*
X108595238Y-79311961D01*
X108595238Y-79311961D02*
X108642857Y-79407200D01*
X108642857Y-79407200D02*
X108738095Y-79454819D01*
X108738095Y-79454819D02*
X108880952Y-79454819D01*
X108880952Y-79454819D02*
X108976190Y-79407200D01*
X108976190Y-79407200D02*
X109023809Y-79359580D01*
X109642857Y-79454819D02*
X109547619Y-79407200D01*
X109547619Y-79407200D02*
X109500000Y-79311961D01*
X109500000Y-79311961D02*
X109500000Y-78454819D01*
X110023810Y-79454819D02*
X110023810Y-78454819D01*
X110119048Y-79073866D02*
X110404762Y-79454819D01*
X110404762Y-78788152D02*
X110023810Y-79169104D01*
X111357143Y-79454819D02*
X110785715Y-79454819D01*
X111071429Y-79454819D02*
X111071429Y-78454819D01*
X111071429Y-78454819D02*
X110976191Y-78597676D01*
X110976191Y-78597676D02*
X110880953Y-78692914D01*
X110880953Y-78692914D02*
X110785715Y-78740533D01*
D11*
%TO.C,U1*%
X118500000Y-84560000D02*
X116500000Y-84560000D01*
X118500000Y-82340000D02*
X116500000Y-82340000D01*
X118740000Y-84740000D02*
X118740000Y-84460000D01*
X119020000Y-84460000D01*
X118740000Y-84740000D01*
G36*
X118740000Y-84740000D02*
G01*
X118740000Y-84460000D01*
X119020000Y-84460000D01*
X118740000Y-84740000D01*
G37*
%TO.C,R2*%
X127735000Y-84272936D02*
X127735000Y-84727064D01*
X126265000Y-84272936D02*
X126265000Y-84727064D01*
%TO.C,R1*%
X125235000Y-82772936D02*
X125235000Y-83227064D01*
X123765000Y-82772936D02*
X123765000Y-83227064D01*
%TO.C,Vout*%
X133620000Y-80845000D02*
X135000000Y-80845000D01*
X133620000Y-82225000D02*
X133620000Y-80845000D01*
X133620000Y-83495000D02*
X133620000Y-86145000D01*
X133620000Y-83495000D02*
X136380000Y-83495000D01*
X133620000Y-86145000D02*
X136380000Y-86145000D01*
X136380000Y-83495000D02*
X136380000Y-86145000D01*
%TO.C,Vin*%
X102620000Y-80845000D02*
X104000000Y-80845000D01*
X102620000Y-82225000D02*
X102620000Y-80845000D01*
X102620000Y-83495000D02*
X102620000Y-86145000D01*
X102620000Y-83495000D02*
X105380000Y-83495000D01*
X102620000Y-86145000D02*
X105380000Y-86145000D01*
X105380000Y-83495000D02*
X105380000Y-86145000D01*
%TO.C,Cout1*%
X121735000Y-84738748D02*
X121735000Y-85261252D01*
X120265000Y-84738748D02*
X120265000Y-85261252D01*
%TO.C,Cnoise1*%
X112510000Y-85359420D02*
X112510000Y-85640580D01*
X111490000Y-85359420D02*
X111490000Y-85640580D01*
%TO.C,Cin1*%
X115235000Y-81238748D02*
X115235000Y-81761252D01*
X113765000Y-81238748D02*
X113765000Y-81761252D01*
%TO.C,Cff1*%
X121140580Y-81510000D02*
X120859420Y-81510000D01*
X121140580Y-80490000D02*
X120859420Y-80490000D01*
%TO.C,Cbulk2*%
X131860000Y-82813748D02*
X131860000Y-84236252D01*
X129140000Y-82813748D02*
X129140000Y-84236252D01*
%TO.C,Cbulk1*%
X110360000Y-81288748D02*
X110360000Y-82711252D01*
X107640000Y-81288748D02*
X107640000Y-82711252D01*
%TD*%
M02*
