%TF.GenerationSoftware,KiCad,Pcbnew,9.0.4*%
%TF.CreationDate,2025-10-07T06:11:54+05:30*%
%TF.ProjectId,Project6,50726f6a-6563-4743-962e-6b696361645f,rev?*%
%TF.SameCoordinates,Original*%
%TF.FileFunction,Legend,Bot*%
%TF.FilePolarity,Positive*%
%FSLAX46Y46*%
G04 Gerber Fmt 4.6, Leading zero omitted, Abs format (unit mm)*
G04 Created by KiCad (PCBNEW 9.0.4) date 2025-10-07 06:11:54*
%MOMM*%
%LPD*%
G01*
G04 APERTURE LIST*
%ADD10C,0.100000*%
G04 APERTURE END LIST*
D10*
X126338972Y-77372419D02*
X125767544Y-77372419D01*
X126053258Y-78372419D02*
X126053258Y-77372419D01*
X124958020Y-78372419D02*
X125434210Y-78372419D01*
X125434210Y-78372419D02*
X125434210Y-77372419D01*
X124767543Y-77372419D02*
X124434210Y-78372419D01*
X124434210Y-78372419D02*
X124100877Y-77372419D01*
X123862781Y-77372419D02*
X123196115Y-77372419D01*
X123196115Y-77372419D02*
X123624686Y-78372419D01*
X122386591Y-77372419D02*
X122577067Y-77372419D01*
X122577067Y-77372419D02*
X122672305Y-77420038D01*
X122672305Y-77420038D02*
X122719924Y-77467657D01*
X122719924Y-77467657D02*
X122815162Y-77610514D01*
X122815162Y-77610514D02*
X122862781Y-77800990D01*
X122862781Y-77800990D02*
X122862781Y-78181942D01*
X122862781Y-78181942D02*
X122815162Y-78277180D01*
X122815162Y-78277180D02*
X122767543Y-78324800D01*
X122767543Y-78324800D02*
X122672305Y-78372419D01*
X122672305Y-78372419D02*
X122481829Y-78372419D01*
X122481829Y-78372419D02*
X122386591Y-78324800D01*
X122386591Y-78324800D02*
X122338972Y-78277180D01*
X122338972Y-78277180D02*
X122291353Y-78181942D01*
X122291353Y-78181942D02*
X122291353Y-77943847D01*
X122291353Y-77943847D02*
X122338972Y-77848609D01*
X122338972Y-77848609D02*
X122386591Y-77800990D01*
X122386591Y-77800990D02*
X122481829Y-77753371D01*
X122481829Y-77753371D02*
X122672305Y-77753371D01*
X122672305Y-77753371D02*
X122767543Y-77800990D01*
X122767543Y-77800990D02*
X122815162Y-77848609D01*
X122815162Y-77848609D02*
X122862781Y-77943847D01*
X121958019Y-77372419D02*
X121291353Y-77372419D01*
X121291353Y-77372419D02*
X121719924Y-78372419D01*
X120719924Y-77372419D02*
X120624686Y-77372419D01*
X120624686Y-77372419D02*
X120529448Y-77420038D01*
X120529448Y-77420038D02*
X120481829Y-77467657D01*
X120481829Y-77467657D02*
X120434210Y-77562895D01*
X120434210Y-77562895D02*
X120386591Y-77753371D01*
X120386591Y-77753371D02*
X120386591Y-77991466D01*
X120386591Y-77991466D02*
X120434210Y-78181942D01*
X120434210Y-78181942D02*
X120481829Y-78277180D01*
X120481829Y-78277180D02*
X120529448Y-78324800D01*
X120529448Y-78324800D02*
X120624686Y-78372419D01*
X120624686Y-78372419D02*
X120719924Y-78372419D01*
X120719924Y-78372419D02*
X120815162Y-78324800D01*
X120815162Y-78324800D02*
X120862781Y-78277180D01*
X120862781Y-78277180D02*
X120910400Y-78181942D01*
X120910400Y-78181942D02*
X120958019Y-77991466D01*
X120958019Y-77991466D02*
X120958019Y-77753371D01*
X120958019Y-77753371D02*
X120910400Y-77562895D01*
X120910400Y-77562895D02*
X120862781Y-77467657D01*
X120862781Y-77467657D02*
X120815162Y-77420038D01*
X120815162Y-77420038D02*
X120719924Y-77372419D01*
X119434210Y-78372419D02*
X120005638Y-78372419D01*
X119719924Y-78372419D02*
X119719924Y-77372419D01*
X119719924Y-77372419D02*
X119815162Y-77515276D01*
X119815162Y-77515276D02*
X119910400Y-77610514D01*
X119910400Y-77610514D02*
X120005638Y-77658133D01*
X119005638Y-78372419D02*
X119005638Y-77372419D01*
X119005638Y-77372419D02*
X118767543Y-77372419D01*
X118767543Y-77372419D02*
X118624686Y-77420038D01*
X118624686Y-77420038D02*
X118529448Y-77515276D01*
X118529448Y-77515276D02*
X118481829Y-77610514D01*
X118481829Y-77610514D02*
X118434210Y-77800990D01*
X118434210Y-77800990D02*
X118434210Y-77943847D01*
X118434210Y-77943847D02*
X118481829Y-78134323D01*
X118481829Y-78134323D02*
X118529448Y-78229561D01*
X118529448Y-78229561D02*
X118624686Y-78324800D01*
X118624686Y-78324800D02*
X118767543Y-78372419D01*
X118767543Y-78372419D02*
X119005638Y-78372419D01*
X117434210Y-78372419D02*
X117767543Y-77896228D01*
X118005638Y-78372419D02*
X118005638Y-77372419D01*
X118005638Y-77372419D02*
X117624686Y-77372419D01*
X117624686Y-77372419D02*
X117529448Y-77420038D01*
X117529448Y-77420038D02*
X117481829Y-77467657D01*
X117481829Y-77467657D02*
X117434210Y-77562895D01*
X117434210Y-77562895D02*
X117434210Y-77705752D01*
X117434210Y-77705752D02*
X117481829Y-77800990D01*
X117481829Y-77800990D02*
X117529448Y-77848609D01*
X117529448Y-77848609D02*
X117624686Y-77896228D01*
X117624686Y-77896228D02*
X118005638Y-77896228D01*
X117148495Y-77372419D02*
X116815162Y-78372419D01*
X116815162Y-78372419D02*
X116481829Y-77372419D01*
X116243733Y-78372419D02*
X115719924Y-77705752D01*
X116243733Y-77705752D02*
X115719924Y-78372419D01*
X114100876Y-78372419D02*
X114577066Y-78372419D01*
X114577066Y-78372419D02*
X114577066Y-77372419D01*
X113767542Y-78372419D02*
X113767542Y-77372419D01*
X113767542Y-77372419D02*
X113529447Y-77372419D01*
X113529447Y-77372419D02*
X113386590Y-77420038D01*
X113386590Y-77420038D02*
X113291352Y-77515276D01*
X113291352Y-77515276D02*
X113243733Y-77610514D01*
X113243733Y-77610514D02*
X113196114Y-77800990D01*
X113196114Y-77800990D02*
X113196114Y-77943847D01*
X113196114Y-77943847D02*
X113243733Y-78134323D01*
X113243733Y-78134323D02*
X113291352Y-78229561D01*
X113291352Y-78229561D02*
X113386590Y-78324800D01*
X113386590Y-78324800D02*
X113529447Y-78372419D01*
X113529447Y-78372419D02*
X113767542Y-78372419D01*
X112577066Y-77372419D02*
X112386590Y-77372419D01*
X112386590Y-77372419D02*
X112291352Y-77420038D01*
X112291352Y-77420038D02*
X112196114Y-77515276D01*
X112196114Y-77515276D02*
X112148495Y-77705752D01*
X112148495Y-77705752D02*
X112148495Y-78039085D01*
X112148495Y-78039085D02*
X112196114Y-78229561D01*
X112196114Y-78229561D02*
X112291352Y-78324800D01*
X112291352Y-78324800D02*
X112386590Y-78372419D01*
X112386590Y-78372419D02*
X112577066Y-78372419D01*
X112577066Y-78372419D02*
X112672304Y-78324800D01*
X112672304Y-78324800D02*
X112767542Y-78229561D01*
X112767542Y-78229561D02*
X112815161Y-78039085D01*
X112815161Y-78039085D02*
X112815161Y-77705752D01*
X112815161Y-77705752D02*
X112767542Y-77515276D01*
X112767542Y-77515276D02*
X112672304Y-77420038D01*
X112672304Y-77420038D02*
X112577066Y-77372419D01*
M02*
